HIERARCHY
ROOT Hips
{
	OFFSET -0.001795 -0.223333 0.028219
	CHANNELS 6 Xposition Yposition Zposition Zrotation Yrotation Xrotation 
	JOINT LeftUpLeg
	{
		OFFSET 0.069520 -0.091406 -0.006815
		CHANNELS 3 Zrotation Yrotation Xrotation
		JOINT LeftLeg
		{
			OFFSET 0.034277 -0.375199 -0.004496
			CHANNELS 3 Zrotation Yrotation Xrotation
			JOINT LeftFoot
			{
				OFFSET -0.013596 -0.397961 -0.043693
				CHANNELS 3 Zrotation Yrotation Xrotation
				JOINT LeftToe
				{
					OFFSET 0.026358 -0.055791 0.119288
					CHANNELS 3 Zrotation Yrotation Xrotation
					End Site
					{
						OFFSET 0.000000 0.000000 0.000000
					}
				}
			}
		}
	}
	JOINT RightUpLeg
	{
		OFFSET -0.067670 -0.090522 -0.004320
		CHANNELS 3 Zrotation Yrotation Xrotation
		JOINT RightLeg
		{
			OFFSET -0.038290 -0.382569 -0.008850
			CHANNELS 3 Zrotation Yrotation Xrotation
			JOINT RightFoot
			{
				OFFSET 0.015774 -0.398415 -0.042312
				CHANNELS 3 Zrotation Yrotation Xrotation
				JOINT RightToe
				{
					OFFSET -0.025372 -0.048144 0.123348
					CHANNELS 3 Zrotation Yrotation Xrotation
					End Site
					{
						OFFSET 0.000000 0.000000 0.000000
					}
				}
			}
		}
	}
	JOINT Spine
	{
		OFFSET -0.002533 0.108963 -0.026696
		CHANNELS 3 Zrotation Yrotation Xrotation
		JOINT Spine1
		{
			OFFSET 0.005487 0.135180 0.001092
			CHANNELS 3 Zrotation Yrotation Xrotation
			JOINT Spine2
			{
				OFFSET 0.001457 0.052922 0.025425
				CHANNELS 3 Zrotation Yrotation Xrotation
				JOINT Neck
				{
					OFFSET -0.002778 0.213870 -0.042857
					CHANNELS 3 Zrotation Yrotation Xrotation
					JOINT Head
					{
						OFFSET 0.005152 0.064970 0.051349
						CHANNELS 3 Zrotation Yrotation Xrotation
						End Site
						{
							OFFSET 0.000000 0.000000 0.000000
						}
					}
				}
				JOINT LeftShoulder
				{
					OFFSET 0.078845 0.121749 -0.034090
					CHANNELS 3 Zrotation Yrotation Xrotation
					JOINT LeftArm
					{
						OFFSET 0.090977 0.030469 -0.008868
						CHANNELS 3 Zrotation Yrotation Xrotation
						JOINT LeftForeArm
						{
							OFFSET 0.259612 -0.012772 -0.027456
							CHANNELS 3 Zrotation Yrotation Xrotation
							JOINT LeftHand
							{
								OFFSET 0.249234 0.008986 -0.001171
								CHANNELS 3 Zrotation Yrotation Xrotation
								End Site
								{
									OFFSET 0.000000 0.000000 0.000000
								}
							}
						}
					}
				}
				JOINT RightShoulder
				{
					OFFSET -0.081759 0.118833 -0.038615
					CHANNELS 3 Zrotation Yrotation Xrotation
					JOINT RightArm
					{
						OFFSET -0.096012 0.032551 -0.009143
						CHANNELS 3 Zrotation Yrotation Xrotation
						JOINT RightForeArm
						{
							OFFSET -0.253742 -0.013329 -0.021401
							CHANNELS 3 Zrotation Yrotation Xrotation
							JOINT RightHand
							{
								OFFSET -0.255298 0.007772 -0.005559
								CHANNELS 3 Zrotation Yrotation Xrotation
								End Site
								{
									OFFSET 0.000000 0.000000 0.000000
								}
							}
						}
					}
				}
			}
		}
	}
}
MOTION
Frames: 6
Frame Time: 0.050000
0.000000 0.940676 0.000000 -0.690676 -1.708855 5.640222 5.820722 -0.186584 -1.339192 0.102386 0.039073 -1.461049 -0.031391 3.167397 8.363723 0.000000 0.000000 0.000000 -5.317110 0.411608 -3.610596 -2.578143 0.080268 -2.886380 -2.218245 -9.924134 14.270421 0.000000 0.000000 0.000000 3.148253 0.155497 -3.489361 -1.773590 0.845162 -2.286833 -1.802579 2.346266 0.894093 0.898308 0.119516 -8.319646 0.000000 0.000000 0.000000 -17.897914 1.264757 -2.905166 -53.389978 -5.810321 -3.349823 -8.233319 -14.680756 1.523991 0.000000 0.000000 0.000000 15.654463 -3.678709 -3.036408 59.166630 4.273710 -3.181588 6.855653 17.059659 1.473062 0.000000 0.000000 0.000000 
0.000382 0.940011 0.000570 -0.798161 -3.315648 6.015821 5.242770 -0.125701 -0.396832 0.865187 0.034451 -3.196914 0.690997 4.390609 8.653485 0.000000 0.000000 0.000000 -5.614883 0.470580 -4.234807 -2.160611 0.032817 -3.050797 -1.493681 -8.782039 13.965563 0.000000 0.000000 0.000000 3.888741 0.162463 -3.541704 -3.015035 1.385093 -2.698933 -1.415771 2.915647 0.399542 -0.546004 1.152460 -9.463125 0.000000 0.000000 0.000000 -18.745113 2.683097 -3.697269 -52.777363 -5.771554 -3.277734 -9.193583 -14.268969 1.601855 0.000000 0.000000 0.000000 14.786202 -4.380608 -3.360947 60.304178 3.540493 -3.545252 7.382001 17.507740 1.572942 0.000000 0.000000 0.000000 
0.000631 0.939887 0.000833 -0.386011 -2.512356 5.982093 4.807218 -0.139538 -0.652104 1.017372 0.014012 -2.985444 0.308288 3.769287 8.588213 0.000000 0.000000 0.000000 -5.959852 0.465972 -4.277976 -2.260621 0.070610 -2.582121 -1.947677 -9.446301 13.831283 0.000000 0.000000 0.000000 3.318368 0.126915 -3.111038 -2.449987 1.130778 -4.151675 -1.977419 2.088205 0.773401 -1.077484 1.466015 -9.107487 0.000000 0.000000 0.000000 -18.071897 2.443470 -3.393337 -53.316616 -5.467323 -3.500113 -8.523590 -13.603126 1.456175 0.000000 0.000000 0.000000 15.961963 -3.352466 -3.042067 59.104463 3.119015 -3.744147 6.941595 17.350496 1.492275 0.000000 0.000000 0.000000 
0.000766 0.939906 0.000986 -0.482125 -2.806537 6.307871 4.827403 -0.142835 -0.675769 1.073270 0.029161 -3.446346 0.436971 4.011952 8.733118 0.000000 0.000000 0.000000 -6.150520 0.503719 -4.853483 -1.802151 0.050477 -2.285474 -1.834834 -9.272001 13.790222 0.000000 0.000000 0.000000 3.295923 0.129938 -3.196635 -3.044296 1.382796 -4.061542 -1.076759 1.285099 -0.107284 -2.271471 2.129320 -7.975506 0.000000 0.000000 0.000000 -17.883311 3.490850 -3.674970 -54.146653 -5.881651 -3.310287 -7.850956 -12.779600 1.310947 0.000000 0.000000 0.000000 14.648819 -3.226569 -3.046018 59.484337 2.908766 -3.789707 7.798056 17.470403 1.573670 0.000000 0.000000 0.000000 
0.000778 0.940421 0.001031 -0.390714 -2.174576 6.220773 4.517408 -0.144939 -0.717334 1.605190 -0.012771 -3.435614 0.123456 3.557156 8.848976 0.000000 0.000000 0.000000 -6.226594 0.492078 -4.800260 -1.733878 0.064752 -1.961051 -2.127889 -9.739103 13.918022 0.000000 0.000000 0.000000 2.980845 0.120503 -3.063336 -2.633362 1.211276 -4.319232 -1.271829 0.797374 0.141343 -2.920240 2.577450 -8.306348 0.000000 0.000000 0.000000 -17.768459 3.307419 -3.536806 -54.369889 -6.593264 -3.028013 -8.034403 -12.016940 1.250683 0.000000 0.000000 0.000000 14.443680 -3.401101 -3.112383 59.617184 3.116875 -3.723920 7.819602 17.152273 1.544230 0.000000 0.000000 0.000000 
0.000767 0.940703 0.001032 -0.422574 -2.113544 6.480181 4.505359 -0.161811 -0.974863 1.703476 -0.016808 -3.505742 0.090920 3.543831 8.972908 0.000000 0.000000 0.000000 -6.192914 0.506407 -5.041865 -1.723101 0.060988 -2.013703 -2.148097 -9.801832 14.067484 0.000000 0.000000 0.000000 2.710785 0.131821 -3.258638 -2.578642 1.187201 -4.450476 -0.858621 0.556132 0.196894 -3.161368 2.719387 -8.180288 0.000000 0.000000 0.000000 -18.052768 3.792967 -3.761931 -54.704503 -7.159359 -2.796467 -7.553323 -11.270027 1.129240 0.000000 0.000000 0.000000 13.862050 -3.242626 -3.005095 59.876776 3.157282 -3.734716 7.810662 17.013011 1.519834 0.000000 0.000000 0.000000 
